<mxfile host="app.diagrams.net" modified="2023-04-10T11:43:23.851Z" agent="Mozilla/5.0 (Windows NT 10.0; Win64; x64) AppleWebKit/537.36 (KHTML, like Gecko) Chrome/111.0.0.0 Safari/537.36" version="21.1.5" etag="_wxdMTBYiTaaTGpGEVz3" type="github">
  <diagram name="PÃ¡gina-1" id="JLXOFfl6VD8Ivmc66FTn">
    <mxGraphModel>
      <root>
        <mxCell id="0" />
        <mxCell id="1" parent="0" />
      </root>
    </mxGraphModel>
  </diagram>
</mxfile>
